<?xml version="1.0" standalone="no"?>
<!DOCTYPE svg PUBLIC "-//W3C//DTD SVG 20010904//EN"
 "http://www.w3.org/TR/2001/REC-SVG-20010904/DTD/svg10.dtd">
<svg version="1.0" xmlns="http://www.w3.org/2000/svg"
 width="200.000000pt" height="200.000000pt" viewBox="0 0 200.000000 200.000000"
 preserveAspectRatio="xMidYMid meet">
<metadata>
Created by potrace 1.15, written by Peter Selinger 2001-2017
</metadata>
<g transform="translate(0.000000,200.000000) scale(0.100000,-0.100000)"
fill="#000000" stroke="none">
<path d="M267 1985 c-16 -11 -18 -25 -15 -79 1 -36 0 -66 -3 -66 -3 0 -27 -18
-52 -40 -80 -70 -77 -45 -64 -760 7 -344 15 -624 20 -622 4 1 36 2 72 2 l65 0
0 694 c0 382 3 701 6 710 5 14 28 16 153 16 102 0 152 -4 163 -12 13 -10 17
-36 20 -125 3 -95 6 -116 24 -140 l21 -28 169 0 169 0 135 153 135 152 204 -2
203 -3 -5 49 c-4 41 -11 55 -41 83 l-37 34 -187 -3 c-182 -3 -188 -4 -220 -28
-31 -23 -33 -29 -30 -71 l3 -47 -48 -11 c-67 -15 -88 -32 -173 -137 -61 -76
-79 -93 -97 -90 -12 3 -30 5 -39 5 -24 1 -38 59 -38 153 0 42 -5 89 -12 103
-11 25 -15 26 -79 24 -65 -2 -69 -1 -95 30 -47 56 -90 71 -206 71 -72 -1 -109
-5 -121 -15z"/>
<path d="M1595 1698 c-260 -299 -367 -427 -382 -458 -11 -21 -19 -66 -21 -115
-4 -76 -2 -84 31 -148 20 -37 32 -65 28 -63 -4 3 -29 -16 -55 -43 l-47 -47 32
-45 c18 -24 59 -75 92 -114 32 -38 66 -79 76 -90 9 -11 79 -97 157 -190 77
-94 149 -184 159 -199 27 -41 8 -48 -105 -42 -52 3 -138 6 -191 6 l-96 0 -99
121 c-55 67 -117 140 -139 164 -53 56 -94 65 -161 35 -38 -17 -66 -22 -124
-20 l-76 1 -21 -38 c-15 -28 -22 -64 -26 -133 -10 -154 4 -142 -156 -135 -75
3 -146 8 -158 11 -30 6 -30 -15 -2 -74 35 -72 61 -82 222 -82 l137 0 0 70 c0
69 0 70 41 107 48 43 69 81 69 123 0 33 40 80 67 80 18 0 58 -41 203 -209 130
-151 152 -171 189 -171 30 0 97 60 84 75 -5 5 11 -7 34 -28 23 -20 53 -39 65
-42 13 -3 93 -4 178 -3 l154 3 1 100 c1 55 7 119 14 142 15 53 2 81 -78 171
-31 35 -61 71 -67 80 -5 9 -31 40 -56 67 -128 141 -291 333 -299 353 -5 13 -7
28 -3 33 3 5 0 9 -5 9 -6 0 -11 16 -11 35 0 19 5 35 11 35 5 0 7 5 4 10 -3 6
-1 10 5 10 6 0 9 4 6 9 -3 5 31 53 77 107 119 142 403 489 410 501 3 5 -17 33
-46 61 l-52 51 -70 -81z"/>
</g>
</svg>
