<?xml version="1.0" standalone="no"?>
<!DOCTYPE svg PUBLIC "-//W3C//DTD SVG 20010904//EN"
 "http://www.w3.org/TR/2001/REC-SVG-20010904/DTD/svg10.dtd">
<svg version="1.0" xmlns="http://www.w3.org/2000/svg"
 width="200.000000pt" height="200.000000pt" viewBox="0 0 200.000000 200.000000"
 preserveAspectRatio="xMidYMid meet">
<metadata>
Created by potrace 1.15, written by Peter Selinger 2001-2017
</metadata>
<g transform="translate(0.000000,200.000000) scale(0.100000,-0.100000)"
fill="#000000" stroke="none">
<path d="M253 1960 c3 -24 1 -41 -7 -45 -6 -3 -1 -3 12 -1 12 2 22 2 22 0 0
-3 -10 -9 -22 -14 -21 -8 -21 -9 -3 -10 20 -1 20 -1 1 -15 -20 -15 -20 -15 0
-15 14 -1 11 -4 -11 -15 -44 -21 -71 -47 -96 -95 l-22 -42 8 -567 c6 -486 17
-824 23 -713 2 30 5 32 37 32 21 0 35 -5 36 -12 1 -7 5 -2 9 12 7 21 8 19 9
-17 2 -67 21 -50 23 20 1 47 3 37 8 -43 3 -58 7 233 8 647 1 413 5 758 8 767
5 14 28 16 153 16 102 0 152 -4 163 -12 13 -10 17 -36 20 -123 3 -96 6 -114
26 -143 13 -18 28 -30 33 -26 6 3 17 0 25 -7 13 -10 17 -10 24 2 8 12 14 11
41 -5 18 -10 29 -14 25 -7 -5 7 3 11 23 11 16 0 32 4 35 8 4 7 90 1 125 -9 8
-2 71 60 153 151 77 85 145 157 151 160 7 3 99 3 205 0 218 -6 214 -7 187 70
-29 82 -22 80 -257 80 -114 0 -208 -3 -208 -7 0 -5 -15 -16 -33 -27 -18 -11
-27 -21 -19 -23 6 -3 12 -14 12 -26 0 -18 -2 -19 -10 -7 -8 13 -11 13 -27 -2
-16 -17 -15 -18 22 -19 30 0 35 -2 20 -8 l-20 -8 20 -5 c15 -4 12 -6 -10 -8
-16 -1 -52 -9 -79 -18 -43 -15 -60 -30 -131 -117 -82 -101 -97 -112 -140 -101
-29 7 -31 14 -45 156 -6 63 -15 117 -20 118 -6 2 -10 10 -10 18 0 8 -4 14 -9
14 -5 0 -7 -10 -4 -22 3 -16 2 -19 -4 -10 -7 9 -22 10 -59 3 -27 -5 -49 -9
-49 -8 -1 1 -13 19 -28 40 -45 60 -68 67 -218 67 l-132 0 6 -40z"/>
<path d="M1651 1738 c11 -21 11 -22 -5 -9 -9 8 -19 11 -23 8 -3 -4 0 -14 8
-23 13 -16 12 -16 -8 -6 -25 14 -45 -4 -22 -20 11 -7 10 -8 -5 -6 -14 2 -62
-46 -179 -182 -230 -267 -222 -254 -222 -375 1 -85 4 -106 23 -138 21 -36 32
-68 13 -38 -7 10 -8 0 -5 -30 3 -29 1 -37 -4 -25 -8 18 -9 18 -15 2 -4 -10 -7
-31 -7 -46 0 -29 -16 -48 -28 -35 -4 4 -1 10 6 12 6 3 12 12 12 21 -1 15 -3
14 -15 -3 -18 -23 -18 -24 22 -72 17 -21 64 -78 104 -128 39 -49 95 -117 124
-150 113 -131 267 -327 261 -333 -7 -7 -87 -8 -281 -4 l-140 3 -100 125 c-55
70 -118 146 -140 169 -42 45 -38 44 -142 37 -12 -1 -36 -16 -54 -34 -30 -31
-31 -31 -25 -8 5 18 4 21 -2 11 -7 -9 -20 -12 -41 -8 -26 6 -33 3 -45 -21 -9
-15 -15 -23 -16 -19 0 5 5 17 11 29 17 31 2 33 -16 1 -13 -22 -15 -24 -12 -6
7 34 -16 18 -35 -25 -8 -20 -19 -84 -23 -142 -4 -59 -12 -108 -19 -112 -6 -4
-80 -5 -163 -1 -124 5 -153 4 -153 -7 0 -31 43 -100 79 -124 37 -26 43 -27
165 -25 69 0 126 5 126 10 0 5 6 9 14 9 8 0 18 5 22 12 5 7 2 9 -9 5 -9 -3
-18 0 -21 9 -4 9 1 14 15 14 11 0 17 5 14 10 -3 6 -18 8 -33 5 -21 -4 -23 -4
-7 3 15 7 19 17 17 45 -3 31 0 38 21 46 39 15 77 73 86 132 9 54 36 89 68 89
17 0 70 -52 153 -150 168 -197 181 -210 224 -211 24 0 27 -2 12 -8 -18 -7 -18
-8 -3 -14 9 -3 17 -2 17 3 0 6 9 10 20 10 16 0 20 7 20 30 0 25 4 30 25 30 14
0 25 -4 25 -9 0 -5 21 -23 47 -40 l46 -31 169 0 c165 0 169 1 163 20 -4 13 -2
20 7 20 9 0 9 3 2 8 -6 4 -12 30 -13 57 -1 28 -4 63 -6 78 -3 26 26 110 36
104 2 -1 0 3 -6 8 -6 6 -15 22 -22 36 -9 20 -96 129 -148 185 -5 6 -28 32 -50
59 -22 26 -45 53 -51 59 -5 6 -65 75 -132 153 -113 130 -123 147 -128 190 -3
27 -1 59 4 73 9 21 119 160 262 330 111 132 168 205 163 213 -2 4 0 6 6 5 5
-2 21 13 36 32 l26 35 -23 7 c-23 6 -23 6 -1 7 12 1 27 9 32 19 7 11 10 13 11
3 0 -11 3 -11 15 -1 8 7 15 18 15 24 0 8 -3 7 -8 -1 -11 -18 -64 -8 -83 16
-20 25 -29 27 -29 5 0 -14 -1 -14 -16 0 -22 22 -27 20 -13 -6z"/>
</g>
</svg>
