<?xml version="1.0" standalone="no"?>
<!DOCTYPE svg PUBLIC "-//W3C//DTD SVG 20010904//EN"
 "http://www.w3.org/TR/2001/REC-SVG-20010904/DTD/svg10.dtd">
<svg version="1.0" xmlns="http://www.w3.org/2000/svg"
 width="683.000000pt" height="683.000000pt" viewBox="0 0 683.000000 683.000000"
 preserveAspectRatio="xMidYMid meet">
<metadata>
Created by potrace 1.15, written by Peter Selinger 2001-2017
</metadata>
<g transform="translate(0.000000,683.000000) scale(0.100000,-0.100000)"
fill="#000000" stroke="none">
<path d="M3770 5614 c-281 -20 -620 -88 -866 -175 -109 -38 -276 -118 -269
-129 3 -4 20 -11 39 -14 107 -20 593 -191 1137 -399 178 -68 401 -149 494
-180 361 -118 463 -114 542 21 25 43 28 58 31 162 9 279 -82 497 -249 597 -67
40 -195 77 -333 98 -104 15 -418 27 -526 19z"/>
<path d="M2044 4167 c-40 -23 -82 -83 -104 -147 -31 -90 -24 -257 15 -375 37
-111 92 -212 145 -266 119 -119 368 -179 747 -179 437 0 914 98 1237 253 l110
53 -113 27 c-137 34 -398 127 -966 342 -488 186 -723 268 -830 290 -88 18
-212 19 -241 2z"/>
<path d="M4289 2825 c-37 -7 -85 -23 -107 -34 -55 -28 -70 -27 -74 7 -3 26 -6
27 -65 30 l-63 3 0 -331 0 -330 70 0 70 0 0 143 c1 192 11 269 44 311 31 42
94 72 169 81 l57 7 0 64 c0 73 6 70 -101 49z"/>
<path d="M1935 2821 c-52 -13 -93 -40 -122 -77 -23 -31 -28 -47 -28 -95 0
-100 41 -127 278 -183 172 -42 210 -58 205 -89 -12 -81 -249 -102 -353 -31
-20 13 -43 24 -51 24 -23 0 -94 -39 -94 -52 0 -19 82 -89 130 -112 39 -18 63
-21 190 -21 139 0 147 1 203 28 81 40 112 88 112 173 0 105 -39 131 -282 190
-163 39 -193 53 -193 88 0 42 24 51 135 51 96 0 104 -2 152 -31 l50 -31 63 26
62 26 -38 34 c-22 18 -64 45 -94 59 -48 23 -70 26 -175 29 -66 1 -133 -1 -150
-6z"/>
<path d="M2680 2817 c-90 -25 -148 -77 -201 -177 -34 -64 -34 -192 0 -268 35
-77 122 -154 197 -175 95 -25 136 -29 208 -17 118 19 209 79 258 173 20 37 23
57 23 157 0 131 -8 153 -79 224 -69 70 -122 89 -251 93 -68 2 -127 -2 -155
-10z m258 -133 c43 -21 56 -34 78 -80 23 -47 26 -63 21 -119 -6 -77 -35 -123
-100 -158 -34 -18 -57 -22 -122 -21 -99 1 -144 19 -184 74 -78 108 -34 281 80
317 19 6 66 11 105 12 57 1 80 -4 122 -25z"/>
<path d="M3240 2415 l0 -415 59 0 59 0 3 119 c2 66 7 122 10 125 3 4 37 -10
75 -30 67 -35 72 -36 159 -32 195 8 302 113 312 306 4 73 2 96 -17 144 -25 66
-87 136 -151 169 -85 44 -308 34 -349 -16 -17 -21 -40 -19 -40 3 0 30 -21 42
-72 42 l-48 0 0 -415z m454 271 c63 -37 80 -73 81 -171 0 -103 -21 -153 -77
-185 -48 -27 -141 -37 -192 -20 -115 38 -170 178 -115 295 49 105 196 144 303
81z"/>
<path d="M4594 2820 c-46 -10 -96 -44 -142 -94 -55 -60 -76 -131 -70 -245 7
-138 55 -213 178 -270 47 -22 68 -26 150 -26 82 1 103 4 154 28 61 28 76 28
76 -3 0 -25 29 -40 79 -40 l41 0 0 330 0 330 -55 0 c-50 0 -56 -2 -65 -25 -12
-31 -11 -31 -85 0 -49 20 -76 24 -145 24 -47 -1 -99 -4 -116 -9z m247 -136
c68 -39 104 -163 74 -253 -39 -118 -176 -164 -306 -102 -66 31 -94 84 -93 176
1 120 56 189 161 203 69 9 119 2 164 -24z"/>
<path d="M4161 2083 c-55 -46 -25 -143 44 -143 47 0 64 8 81 41 39 76 -59 155
-125 102z"/>
<path d="M2560 1945 l0 -75 -60 0 -60 0 0 -55 0 -55 60 0 60 0 0 -187 c0 -104
5 -204 10 -223 11 -41 61 -94 103 -109 16 -6 69 -11 118 -11 l89 0 0 61 0 61
-68 -7 c-118 -12 -130 14 -131 278 l-1 137 100 0 100 0 0 55 0 55 -100 0 -100
0 0 75 0 75 -60 0 -60 0 0 -75z"/>
<path d="M1963 1870 c-54 -11 -91 -31 -128 -69 -24 -26 -30 -41 -33 -94 -4
-57 -2 -66 24 -96 37 -45 84 -63 259 -102 88 -20 157 -41 172 -52 36 -29 27
-58 -29 -85 -94 -47 -238 -38 -304 20 l-35 31 -43 -17 c-62 -24 -71 -37 -45
-70 58 -74 164 -116 297 -116 204 0 322 77 322 211 0 47 -3 55 -42 94 -47 47
-71 56 -278 105 -162 39 -195 70 -123 117 21 14 46 18 108 18 78 -1 113 -12
176 -57 19 -13 108 17 116 39 8 21 -42 69 -96 92 -85 36 -222 50 -318 31z"/>
<path d="M3105 1856 c-77 -32 -169 -125 -186 -188 -18 -67 -7 -224 18 -274 26
-48 86 -105 145 -135 36 -19 63 -23 173 -27 l130 -4 85 44 c46 23 86 48 88 54
4 14 -67 84 -85 84 -7 0 -28 -11 -48 -24 -34 -24 -112 -46 -159 -46 -49 0
-125 31 -168 70 -51 44 -65 75 -39 86 9 4 132 9 275 12 l259 5 -6 63 c-9 93
-40 155 -108 219 -69 63 -103 76 -224 81 -79 4 -97 2 -150 -20z m244 -124 c43
-21 96 -85 88 -106 -6 -14 -33 -16 -192 -16 -160 0 -186 2 -192 16 -7 18 21
58 58 86 66 49 163 57 238 20z"/>
<path d="M3972 1868 c-35 -5 -90 -22 -122 -38 l-59 -30 -3 33 c-3 32 -3 32
-65 35 l-63 3 0 -321 0 -320 64 0 64 0 4 183 c4 171 5 185 28 226 31 55 102
97 189 112 l61 11 0 59 c0 66 8 63 -98 47z"/>
<path d="M4569 1856 c-75 -30 -113 -59 -148 -110 -44 -63 -65 -146 -58 -228
10 -121 65 -206 165 -255 52 -25 67 -28 167 -28 99 0 116 3 168 27 51 24 57
25 57 9 0 -29 22 -41 72 -41 l48 0 0 320 0 320 -48 0 c-51 0 -72 -12 -72 -42
0 -18 -2 -18 -37 1 -109 55 -223 65 -314 27z m199 -106 c98 -23 146 -97 140
-216 -3 -63 -7 -77 -34 -111 -48 -59 -87 -77 -165 -77 -86 0 -151 36 -185 104
-58 112 -1 273 104 296 15 3 32 7 37 9 19 7 61 4 103 -5z"/>
<path d="M4140 1550 l0 -320 65 0 65 0 0 320 0 320 -65 0 -65 0 0 -320z"/>
</g>
</svg>
